<mxfile host="app.diagrams.net" modified="2021-10-13T17:57:13.585Z" agent="5.0 (Windows NT 10.0; Win64; x64) AppleWebKit/537.36 (KHTML, like Gecko) Chrome/94.0.4606.71 Safari/537.36" etag="_NafKhKzYaVvW5KgcBpQ" version="15.5.1" type="github">
  <diagram id="TRuZ7Tm0APD07rYi6AWg" name="Page-1">
    <mxGraphModel dx="1550" dy="1879" grid="1" gridSize="10" guides="1" tooltips="1" connect="1" arrows="1" fold="1" page="1" pageScale="1" pageWidth="850" pageHeight="1100" math="0" shadow="0">
      <root>
        <mxCell id="0" />
        <mxCell id="1" parent="0" />
        <mxCell id="u37IsGQYfRwt9-iIpRyf-2" value="&lt;span style=&quot;font-family: &amp;#34;consolas&amp;#34; , &amp;#34;courier new&amp;#34; , monospace ; font-size: 14px&quot;&gt;&lt;font color=&quot;#ff0000&quot;&gt;char*const key&lt;/font&gt;&lt;/span&gt;" style="rounded=0;whiteSpace=wrap;html=1;fillColor=#e3c800;strokeColor=#B09500;fontColor=#000000;" vertex="1" parent="1">
          <mxGeometry x="120" y="360" width="120" height="40" as="geometry" />
        </mxCell>
        <mxCell id="u37IsGQYfRwt9-iIpRyf-35" style="edgeStyle=orthogonalEdgeStyle;rounded=0;orthogonalLoop=1;jettySize=auto;html=1;entryX=0;entryY=0.5;entryDx=0;entryDy=0;" edge="1" parent="1" source="u37IsGQYfRwt9-iIpRyf-3" target="u37IsGQYfRwt9-iIpRyf-34">
          <mxGeometry relative="1" as="geometry" />
        </mxCell>
        <mxCell id="u37IsGQYfRwt9-iIpRyf-3" value="&lt;span&gt;ptr_a&lt;/span&gt;" style="rounded=0;whiteSpace=wrap;html=1;fillColor=#e3c800;strokeColor=#B09500;fontColor=#000000;" vertex="1" parent="1">
          <mxGeometry x="120" y="400" width="120" height="40" as="geometry" />
        </mxCell>
        <mxCell id="u37IsGQYfRwt9-iIpRyf-4" value="nullptr" style="rounded=0;whiteSpace=wrap;html=1;fillColor=#008a00;strokeColor=#005700;fontColor=#ffffff;" vertex="1" parent="1">
          <mxGeometry x="120" y="320" width="120" height="40" as="geometry" />
        </mxCell>
        <mxCell id="u37IsGQYfRwt9-iIpRyf-5" value="nullptr" style="rounded=0;whiteSpace=wrap;html=1;fillColor=#008a00;strokeColor=#005700;fontColor=#ffffff;" vertex="1" parent="1">
          <mxGeometry x="120" y="280" width="120" height="40" as="geometry" />
        </mxCell>
        <mxCell id="u37IsGQYfRwt9-iIpRyf-57" style="edgeStyle=orthogonalEdgeStyle;rounded=0;orthogonalLoop=1;jettySize=auto;html=1;entryX=0;entryY=0.5;entryDx=0;entryDy=0;" edge="1" parent="1" source="u37IsGQYfRwt9-iIpRyf-6" target="u37IsGQYfRwt9-iIpRyf-40">
          <mxGeometry relative="1" as="geometry" />
        </mxCell>
        <mxCell id="u37IsGQYfRwt9-iIpRyf-6" value="&lt;span style=&quot;color: rgb(0 , 0 , 0)&quot;&gt;ptr_a&lt;/span&gt;" style="rounded=0;whiteSpace=wrap;html=1;fillColor=#008a00;strokeColor=#005700;fontColor=#ffffff;" vertex="1" parent="1">
          <mxGeometry x="120" y="240" width="120" height="40" as="geometry" />
        </mxCell>
        <mxCell id="u37IsGQYfRwt9-iIpRyf-7" value="&lt;span style=&quot;color: rgb(0 , 0 , 0)&quot;&gt;ptr_a&lt;/span&gt;" style="rounded=0;whiteSpace=wrap;html=1;fillColor=#008a00;strokeColor=#005700;fontColor=#ffffff;" vertex="1" parent="1">
          <mxGeometry x="120" y="200" width="120" height="40" as="geometry" />
        </mxCell>
        <mxCell id="u37IsGQYfRwt9-iIpRyf-61" style="edgeStyle=orthogonalEdgeStyle;rounded=0;orthogonalLoop=1;jettySize=auto;html=1;entryX=0;entryY=0.5;entryDx=0;entryDy=0;" edge="1" parent="1" source="u37IsGQYfRwt9-iIpRyf-8" target="u37IsGQYfRwt9-iIpRyf-48">
          <mxGeometry relative="1" as="geometry" />
        </mxCell>
        <mxCell id="u37IsGQYfRwt9-iIpRyf-8" value="&lt;span style=&quot;color: rgb(0 , 0 , 0)&quot;&gt;ptr_b&lt;/span&gt;" style="rounded=0;whiteSpace=wrap;html=1;fillColor=#008a00;strokeColor=#005700;fontColor=#ffffff;" vertex="1" parent="1">
          <mxGeometry x="120" y="160" width="120" height="40" as="geometry" />
        </mxCell>
        <mxCell id="u37IsGQYfRwt9-iIpRyf-63" style="edgeStyle=orthogonalEdgeStyle;rounded=0;orthogonalLoop=1;jettySize=auto;html=1;entryX=0;entryY=0.5;entryDx=0;entryDy=0;" edge="1" parent="1" source="u37IsGQYfRwt9-iIpRyf-9" target="u37IsGQYfRwt9-iIpRyf-49">
          <mxGeometry relative="1" as="geometry" />
        </mxCell>
        <mxCell id="u37IsGQYfRwt9-iIpRyf-9" value="&lt;span style=&quot;color: rgb(0 , 0 , 0)&quot;&gt;ptr_b&lt;/span&gt;" style="rounded=0;whiteSpace=wrap;html=1;fillColor=#008a00;strokeColor=#005700;fontColor=#ffffff;" vertex="1" parent="1">
          <mxGeometry x="120" y="120" width="120" height="40" as="geometry" />
        </mxCell>
        <mxCell id="u37IsGQYfRwt9-iIpRyf-10" value="nullptr" style="rounded=0;whiteSpace=wrap;html=1;fillColor=#008a00;strokeColor=#005700;fontColor=#ffffff;" vertex="1" parent="1">
          <mxGeometry x="120" y="80" width="120" height="40" as="geometry" />
        </mxCell>
        <mxCell id="u37IsGQYfRwt9-iIpRyf-11" value="nullptr" style="rounded=0;whiteSpace=wrap;html=1;fillColor=#008a00;strokeColor=#005700;fontColor=#ffffff;" vertex="1" parent="1">
          <mxGeometry x="120" y="40" width="120" height="40" as="geometry" />
        </mxCell>
        <mxCell id="u37IsGQYfRwt9-iIpRyf-12" value="nullptr" style="rounded=0;whiteSpace=wrap;html=1;fillColor=#008a00;strokeColor=#005700;fontColor=#ffffff;" vertex="1" parent="1">
          <mxGeometry x="120" width="120" height="40" as="geometry" />
        </mxCell>
        <mxCell id="u37IsGQYfRwt9-iIpRyf-13" value="nullptr" style="rounded=0;whiteSpace=wrap;html=1;fillColor=#008a00;strokeColor=#005700;fontColor=#ffffff;" vertex="1" parent="1">
          <mxGeometry x="120" y="-40" width="120" height="40" as="geometry" />
        </mxCell>
        <mxCell id="u37IsGQYfRwt9-iIpRyf-14" value="nullptr" style="rounded=0;whiteSpace=wrap;html=1;fillColor=#008a00;strokeColor=#005700;fontColor=#ffffff;" vertex="1" parent="1">
          <mxGeometry x="120" y="-80" width="120" height="40" as="geometry" />
        </mxCell>
        <mxCell id="u37IsGQYfRwt9-iIpRyf-15" style="edgeStyle=orthogonalEdgeStyle;curved=1;rounded=0;orthogonalLoop=1;jettySize=auto;html=1;entryX=0.5;entryY=1;entryDx=0;entryDy=0;fontSize=14;fontColor=#000000;" edge="1" parent="1" source="u37IsGQYfRwt9-iIpRyf-16" target="u37IsGQYfRwt9-iIpRyf-3">
          <mxGeometry relative="1" as="geometry" />
        </mxCell>
        <mxCell id="u37IsGQYfRwt9-iIpRyf-16" value="&lt;div style=&quot;color: rgb(36 , 41 , 46) ; background-color: rgb(255 , 255 , 255) ; font-family: &amp;#34;consolas&amp;#34; , &amp;#34;courier new&amp;#34; , monospace ; line-height: 19px&quot;&gt;&lt;span style=&quot;color: #6f42c1&quot;&gt;Node&lt;/span&gt;&lt;span style=&quot;color: #d73a49&quot;&gt;*&lt;/span&gt;&amp;nbsp;&lt;span style=&quot;color: #d73a49&quot;&gt;const&lt;/span&gt;&amp;nbsp;head_&lt;/div&gt;" style="text;html=1;align=center;verticalAlign=middle;resizable=0;points=[];autosize=1;strokeColor=none;fillColor=none;fontSize=14;fontColor=#000000;" vertex="1" parent="1">
          <mxGeometry x="105" y="580" width="150" height="20" as="geometry" />
        </mxCell>
        <mxCell id="u37IsGQYfRwt9-iIpRyf-17" value="&lt;span style=&quot;background-color: rgb(255 , 255 , 255) ; color: rgb(36 , 41 , 46) ; font-family: &amp;#34;consolas&amp;#34; , &amp;#34;courier new&amp;#34; , monospace&quot;&gt;kMaxHeight(12) level&lt;/span&gt;" style="text;html=1;align=center;verticalAlign=middle;resizable=0;points=[];autosize=1;strokeColor=none;fillColor=none;fontSize=14;fontColor=#000000;" vertex="1" parent="1">
          <mxGeometry x="95" y="-120" width="170" height="20" as="geometry" />
        </mxCell>
        <mxCell id="u37IsGQYfRwt9-iIpRyf-32" value="riverferry.site" style="text;html=1;align=center;verticalAlign=middle;resizable=0;points=[];autosize=1;strokeColor=none;fillColor=none;fontSize=10;fontColor=#000000;" vertex="1" parent="1">
          <mxGeometry x="400" y="50" width="80" height="20" as="geometry" />
        </mxCell>
        <mxCell id="u37IsGQYfRwt9-iIpRyf-33" value="&lt;span style=&quot;font-family: &amp;#34;consolas&amp;#34; , &amp;#34;courier new&amp;#34; , monospace ; font-size: 14px&quot;&gt;&lt;font color=&quot;#ff0000&quot;&gt;char*const key&lt;/font&gt;&lt;/span&gt;" style="rounded=0;whiteSpace=wrap;html=1;fillColor=#e3c800;strokeColor=#B09500;fontColor=#000000;" vertex="1" parent="1">
          <mxGeometry x="400" y="360" width="120" height="40" as="geometry" />
        </mxCell>
        <mxCell id="u37IsGQYfRwt9-iIpRyf-68" style="edgeStyle=orthogonalEdgeStyle;rounded=0;orthogonalLoop=1;jettySize=auto;html=1;" edge="1" parent="1" source="u37IsGQYfRwt9-iIpRyf-34">
          <mxGeometry relative="1" as="geometry">
            <mxPoint x="460" y="520" as="targetPoint" />
          </mxGeometry>
        </mxCell>
        <mxCell id="u37IsGQYfRwt9-iIpRyf-70" style="edgeStyle=orthogonalEdgeStyle;rounded=0;orthogonalLoop=1;jettySize=auto;html=1;" edge="1" parent="1" source="u37IsGQYfRwt9-iIpRyf-34" target="u37IsGQYfRwt9-iIpRyf-42">
          <mxGeometry relative="1" as="geometry" />
        </mxCell>
        <mxCell id="u37IsGQYfRwt9-iIpRyf-34" value="&lt;span&gt;ptr_b&lt;/span&gt;" style="rounded=0;whiteSpace=wrap;html=1;fillColor=#e3c800;strokeColor=#B09500;fontColor=#000000;" vertex="1" parent="1">
          <mxGeometry x="400" y="400" width="120" height="40" as="geometry" />
        </mxCell>
        <mxCell id="u37IsGQYfRwt9-iIpRyf-59" style="edgeStyle=orthogonalEdgeStyle;rounded=0;orthogonalLoop=1;jettySize=auto;html=1;" edge="1" parent="1" target="u37IsGQYfRwt9-iIpRyf-39">
          <mxGeometry relative="1" as="geometry">
            <mxPoint x="240" y="220" as="sourcePoint" />
          </mxGeometry>
        </mxCell>
        <mxCell id="u37IsGQYfRwt9-iIpRyf-54" style="edgeStyle=orthogonalEdgeStyle;rounded=0;orthogonalLoop=1;jettySize=auto;html=1;entryX=0;entryY=0.5;entryDx=0;entryDy=0;" edge="1" parent="1" source="u37IsGQYfRwt9-iIpRyf-37" target="u37IsGQYfRwt9-iIpRyf-51">
          <mxGeometry relative="1" as="geometry" />
        </mxCell>
        <mxCell id="u37IsGQYfRwt9-iIpRyf-37" value="&lt;span style=&quot;color: rgb(0 , 0 , 0)&quot;&gt;ptr_b&lt;/span&gt;" style="rounded=0;whiteSpace=wrap;html=1;fillColor=#008a00;strokeColor=#005700;fontColor=#ffffff;" vertex="1" parent="1">
          <mxGeometry x="400" y="320" width="120" height="40" as="geometry" />
        </mxCell>
        <mxCell id="u37IsGQYfRwt9-iIpRyf-56" style="edgeStyle=orthogonalEdgeStyle;rounded=0;orthogonalLoop=1;jettySize=auto;html=1;" edge="1" parent="1" source="u37IsGQYfRwt9-iIpRyf-38" target="u37IsGQYfRwt9-iIpRyf-52">
          <mxGeometry relative="1" as="geometry" />
        </mxCell>
        <mxCell id="u37IsGQYfRwt9-iIpRyf-38" value="&lt;span style=&quot;color: rgb(0 , 0 , 0)&quot;&gt;ptr_b&lt;/span&gt;" style="rounded=0;whiteSpace=wrap;html=1;fillColor=#008a00;strokeColor=#005700;fontColor=#ffffff;" vertex="1" parent="1">
          <mxGeometry x="400" y="280" width="120" height="40" as="geometry" />
        </mxCell>
        <mxCell id="u37IsGQYfRwt9-iIpRyf-60" style="edgeStyle=orthogonalEdgeStyle;rounded=0;orthogonalLoop=1;jettySize=auto;html=1;entryX=0;entryY=0.5;entryDx=0;entryDy=0;" edge="1" parent="1" source="u37IsGQYfRwt9-iIpRyf-39" target="u37IsGQYfRwt9-iIpRyf-50">
          <mxGeometry relative="1" as="geometry" />
        </mxCell>
        <mxCell id="u37IsGQYfRwt9-iIpRyf-39" value="&lt;span style=&quot;color: rgb(0 , 0 , 0)&quot;&gt;ptr_b&lt;/span&gt;" style="rounded=0;whiteSpace=wrap;html=1;fillColor=#008a00;strokeColor=#005700;fontColor=#ffffff;" vertex="1" parent="1">
          <mxGeometry x="400" y="200" width="120" height="40" as="geometry" />
        </mxCell>
        <mxCell id="u37IsGQYfRwt9-iIpRyf-58" style="edgeStyle=orthogonalEdgeStyle;rounded=0;orthogonalLoop=1;jettySize=auto;html=1;entryX=0;entryY=0.5;entryDx=0;entryDy=0;" edge="1" parent="1" source="u37IsGQYfRwt9-iIpRyf-40" target="u37IsGQYfRwt9-iIpRyf-47">
          <mxGeometry relative="1" as="geometry" />
        </mxCell>
        <mxCell id="u37IsGQYfRwt9-iIpRyf-40" value="&lt;span style=&quot;color: rgb(0 , 0 , 0)&quot;&gt;ptr_b&lt;/span&gt;" style="rounded=0;whiteSpace=wrap;html=1;fillColor=#008a00;strokeColor=#005700;fontColor=#ffffff;" vertex="1" parent="1">
          <mxGeometry x="400" y="240" width="120" height="40" as="geometry" />
        </mxCell>
        <mxCell id="u37IsGQYfRwt9-iIpRyf-41" value="&lt;span style=&quot;font-family: &amp;#34;consolas&amp;#34; , &amp;#34;courier new&amp;#34; , monospace ; font-size: 14px&quot;&gt;&lt;font color=&quot;#ff0000&quot;&gt;char*const key&lt;/font&gt;&lt;/span&gt;" style="rounded=0;whiteSpace=wrap;html=1;fillColor=#e3c800;strokeColor=#B09500;fontColor=#000000;" vertex="1" parent="1">
          <mxGeometry x="680" y="360" width="120" height="40" as="geometry" />
        </mxCell>
        <mxCell id="u37IsGQYfRwt9-iIpRyf-69" style="edgeStyle=orthogonalEdgeStyle;rounded=0;orthogonalLoop=1;jettySize=auto;html=1;" edge="1" parent="1" source="u37IsGQYfRwt9-iIpRyf-42">
          <mxGeometry relative="1" as="geometry">
            <mxPoint x="740" y="520" as="targetPoint" />
          </mxGeometry>
        </mxCell>
        <mxCell id="u37IsGQYfRwt9-iIpRyf-42" value="&lt;font color=&quot;#ff0000&quot;&gt;&lt;span style=&quot;font-size: 14px&quot;&gt;nullptr&lt;/span&gt;&lt;/font&gt;" style="rounded=0;whiteSpace=wrap;html=1;fillColor=#e3c800;strokeColor=#B09500;fontColor=#000000;" vertex="1" parent="1">
          <mxGeometry x="680" y="400" width="120" height="40" as="geometry" />
        </mxCell>
        <mxCell id="u37IsGQYfRwt9-iIpRyf-43" value="nullptr" style="rounded=0;whiteSpace=wrap;html=1;fillColor=#008a00;strokeColor=#005700;fontColor=#ffffff;" vertex="1" parent="1">
          <mxGeometry x="120" y="320" width="120" height="40" as="geometry" />
        </mxCell>
        <mxCell id="u37IsGQYfRwt9-iIpRyf-44" value="nullptr" style="rounded=0;whiteSpace=wrap;html=1;fillColor=#008a00;strokeColor=#005700;fontColor=#ffffff;" vertex="1" parent="1">
          <mxGeometry x="120" y="280" width="120" height="40" as="geometry" />
        </mxCell>
        <mxCell id="u37IsGQYfRwt9-iIpRyf-53" style="edgeStyle=orthogonalEdgeStyle;rounded=0;orthogonalLoop=1;jettySize=auto;html=1;" edge="1" parent="1" source="u37IsGQYfRwt9-iIpRyf-45" target="u37IsGQYfRwt9-iIpRyf-37">
          <mxGeometry relative="1" as="geometry" />
        </mxCell>
        <mxCell id="u37IsGQYfRwt9-iIpRyf-45" value="&lt;span style=&quot;color: rgb(0 , 0 , 0)&quot;&gt;ptr_a&lt;/span&gt;" style="rounded=0;whiteSpace=wrap;html=1;fillColor=#008a00;strokeColor=#005700;fontColor=#ffffff;" vertex="1" parent="1">
          <mxGeometry x="120" y="320" width="120" height="40" as="geometry" />
        </mxCell>
        <mxCell id="u37IsGQYfRwt9-iIpRyf-55" style="edgeStyle=orthogonalEdgeStyle;rounded=0;orthogonalLoop=1;jettySize=auto;html=1;entryX=0;entryY=0.5;entryDx=0;entryDy=0;" edge="1" parent="1" source="u37IsGQYfRwt9-iIpRyf-46" target="u37IsGQYfRwt9-iIpRyf-38">
          <mxGeometry relative="1" as="geometry" />
        </mxCell>
        <mxCell id="u37IsGQYfRwt9-iIpRyf-46" value="&lt;span style=&quot;color: rgb(0 , 0 , 0)&quot;&gt;ptr_a&lt;/span&gt;" style="rounded=0;whiteSpace=wrap;html=1;fillColor=#008a00;strokeColor=#005700;fontColor=#ffffff;" vertex="1" parent="1">
          <mxGeometry x="120" y="280" width="120" height="40" as="geometry" />
        </mxCell>
        <mxCell id="u37IsGQYfRwt9-iIpRyf-47" value="nullptr" style="rounded=0;whiteSpace=wrap;html=1;fillColor=#008a00;strokeColor=#005700;fontColor=#ffffff;" vertex="1" parent="1">
          <mxGeometry x="680" y="240" width="120" height="40" as="geometry" />
        </mxCell>
        <mxCell id="u37IsGQYfRwt9-iIpRyf-48" value="nullptr" style="rounded=0;whiteSpace=wrap;html=1;fillColor=#008a00;strokeColor=#005700;fontColor=#ffffff;" vertex="1" parent="1">
          <mxGeometry x="680" y="160" width="120" height="40" as="geometry" />
        </mxCell>
        <mxCell id="u37IsGQYfRwt9-iIpRyf-49" value="nullptr" style="rounded=0;whiteSpace=wrap;html=1;fillColor=#008a00;strokeColor=#005700;fontColor=#ffffff;" vertex="1" parent="1">
          <mxGeometry x="680" y="120" width="120" height="40" as="geometry" />
        </mxCell>
        <mxCell id="u37IsGQYfRwt9-iIpRyf-50" value="nullptr" style="rounded=0;whiteSpace=wrap;html=1;fillColor=#008a00;strokeColor=#005700;fontColor=#ffffff;" vertex="1" parent="1">
          <mxGeometry x="680" y="200" width="120" height="40" as="geometry" />
        </mxCell>
        <mxCell id="u37IsGQYfRwt9-iIpRyf-51" value="nullptr" style="rounded=0;whiteSpace=wrap;html=1;fillColor=#008a00;strokeColor=#005700;fontColor=#ffffff;" vertex="1" parent="1">
          <mxGeometry x="680" y="320" width="120" height="40" as="geometry" />
        </mxCell>
        <mxCell id="u37IsGQYfRwt9-iIpRyf-52" value="nullptr" style="rounded=0;whiteSpace=wrap;html=1;fillColor=#008a00;strokeColor=#005700;fontColor=#ffffff;" vertex="1" parent="1">
          <mxGeometry x="680" y="280" width="120" height="40" as="geometry" />
        </mxCell>
        <mxCell id="u37IsGQYfRwt9-iIpRyf-64" value="ptr_a" style="text;html=1;align=center;verticalAlign=middle;resizable=0;points=[];autosize=1;strokeColor=none;fillColor=none;" vertex="1" parent="1">
          <mxGeometry x="440" y="520" width="40" height="20" as="geometry" />
        </mxCell>
        <mxCell id="u37IsGQYfRwt9-iIpRyf-65" value="ptr_b" style="text;html=1;align=center;verticalAlign=middle;resizable=0;points=[];autosize=1;strokeColor=none;fillColor=none;" vertex="1" parent="1">
          <mxGeometry x="720" y="520" width="40" height="20" as="geometry" />
        </mxCell>
      </root>
    </mxGraphModel>
  </diagram>
</mxfile>
